<mxfile host="Electron" agent="Mozilla/5.0 (Macintosh; Intel Mac OS X 10_15_7) AppleWebKit/537.36 (KHTML, like Gecko) draw.io/24.7.8 Chrome/128.0.6613.36 Electron/32.0.1 Safari/537.36" version="24.7.8">
  <diagram name="Page-1" id="pO92pLxdjYslzxr-sr9l">
    <mxGraphModel dx="1195" dy="866" grid="1" gridSize="10" guides="1" tooltips="1" connect="1" arrows="1" fold="1" page="1" pageScale="1" pageWidth="1169" pageHeight="827" math="0" shadow="0">
      <root>
        <mxCell id="0" />
        <mxCell id="1" parent="0" />
        <mxCell id="-iSgqc7Wc7jD1FPE-ffa-10" style="edgeStyle=orthogonalEdgeStyle;shape=connector;rounded=0;orthogonalLoop=1;jettySize=auto;html=1;entryX=0;entryY=0.5;entryDx=0;entryDy=0;strokeColor=default;align=center;verticalAlign=middle;fontFamily=Helvetica;fontSize=11;fontColor=default;labelBackgroundColor=default;endArrow=none;endFill=0;" edge="1" parent="1" source="-iSgqc7Wc7jD1FPE-ffa-1" target="-iSgqc7Wc7jD1FPE-ffa-9">
          <mxGeometry relative="1" as="geometry" />
        </mxCell>
        <mxCell id="-iSgqc7Wc7jD1FPE-ffa-13" value="N" style="edgeLabel;html=1;align=center;verticalAlign=middle;resizable=0;points=[];fontFamily=Helvetica;fontSize=11;fontColor=default;labelBackgroundColor=default;" vertex="1" connectable="0" parent="-iSgqc7Wc7jD1FPE-ffa-10">
          <mxGeometry x="-0.8378" y="2" relative="1" as="geometry">
            <mxPoint x="-2" y="-7" as="offset" />
          </mxGeometry>
        </mxCell>
        <mxCell id="-iSgqc7Wc7jD1FPE-ffa-21" style="edgeStyle=orthogonalEdgeStyle;shape=connector;rounded=0;orthogonalLoop=1;jettySize=auto;html=1;entryX=0.5;entryY=0;entryDx=0;entryDy=0;strokeColor=default;align=center;verticalAlign=middle;fontFamily=Helvetica;fontSize=11;fontColor=default;labelBackgroundColor=default;endArrow=none;endFill=0;" edge="1" parent="1" source="-iSgqc7Wc7jD1FPE-ffa-1" target="-iSgqc7Wc7jD1FPE-ffa-15">
          <mxGeometry relative="1" as="geometry" />
        </mxCell>
        <mxCell id="-iSgqc7Wc7jD1FPE-ffa-23" value="1" style="edgeLabel;html=1;align=center;verticalAlign=middle;resizable=0;points=[];fontFamily=Helvetica;fontSize=11;fontColor=default;labelBackgroundColor=default;" vertex="1" connectable="0" parent="-iSgqc7Wc7jD1FPE-ffa-21">
          <mxGeometry x="-0.6522" y="1" relative="1" as="geometry">
            <mxPoint x="-9" y="-15" as="offset" />
          </mxGeometry>
        </mxCell>
        <mxCell id="-iSgqc7Wc7jD1FPE-ffa-27" style="edgeStyle=orthogonalEdgeStyle;shape=connector;rounded=0;orthogonalLoop=1;jettySize=auto;html=1;exitX=0.75;exitY=1;exitDx=0;exitDy=0;entryX=0;entryY=0.5;entryDx=0;entryDy=0;strokeColor=default;align=center;verticalAlign=middle;fontFamily=Helvetica;fontSize=11;fontColor=default;labelBackgroundColor=default;endArrow=none;endFill=0;" edge="1" parent="1" source="-iSgqc7Wc7jD1FPE-ffa-1" target="-iSgqc7Wc7jD1FPE-ffa-26">
          <mxGeometry relative="1" as="geometry" />
        </mxCell>
        <mxCell id="-iSgqc7Wc7jD1FPE-ffa-31" value="N" style="edgeLabel;html=1;align=center;verticalAlign=middle;resizable=0;points=[];fontFamily=Helvetica;fontSize=11;fontColor=default;labelBackgroundColor=default;" vertex="1" connectable="0" parent="-iSgqc7Wc7jD1FPE-ffa-27">
          <mxGeometry x="-0.8231" y="1" relative="1" as="geometry">
            <mxPoint x="7" y="-1" as="offset" />
          </mxGeometry>
        </mxCell>
        <mxCell id="-iSgqc7Wc7jD1FPE-ffa-61" style="edgeStyle=none;shape=connector;rounded=0;orthogonalLoop=1;jettySize=auto;html=1;strokeColor=default;align=center;verticalAlign=middle;fontFamily=Helvetica;fontSize=11;fontColor=default;labelBackgroundColor=default;endArrow=none;endFill=0;" edge="1" parent="1" source="-iSgqc7Wc7jD1FPE-ffa-1" target="-iSgqc7Wc7jD1FPE-ffa-2">
          <mxGeometry relative="1" as="geometry" />
        </mxCell>
        <mxCell id="-iSgqc7Wc7jD1FPE-ffa-62" style="edgeStyle=none;shape=connector;rounded=0;orthogonalLoop=1;jettySize=auto;html=1;strokeColor=default;align=center;verticalAlign=middle;fontFamily=Helvetica;fontSize=11;fontColor=default;labelBackgroundColor=default;endArrow=none;endFill=0;" edge="1" parent="1" source="-iSgqc7Wc7jD1FPE-ffa-1" target="-iSgqc7Wc7jD1FPE-ffa-3">
          <mxGeometry relative="1" as="geometry" />
        </mxCell>
        <mxCell id="-iSgqc7Wc7jD1FPE-ffa-63" style="edgeStyle=none;shape=connector;rounded=0;orthogonalLoop=1;jettySize=auto;html=1;strokeColor=default;align=center;verticalAlign=middle;fontFamily=Helvetica;fontSize=11;fontColor=default;labelBackgroundColor=default;endArrow=none;endFill=0;" edge="1" parent="1" source="-iSgqc7Wc7jD1FPE-ffa-1" target="-iSgqc7Wc7jD1FPE-ffa-4">
          <mxGeometry relative="1" as="geometry" />
        </mxCell>
        <mxCell id="-iSgqc7Wc7jD1FPE-ffa-1" value="Book" style="whiteSpace=wrap;html=1;align=center;fontFamily=Helvetica;fontSize=11;fontColor=default;labelBackgroundColor=default;" vertex="1" parent="1">
          <mxGeometry x="470" y="340" width="100" height="40" as="geometry" />
        </mxCell>
        <mxCell id="-iSgqc7Wc7jD1FPE-ffa-2" value="ISBN" style="ellipse;whiteSpace=wrap;html=1;align=center;fontStyle=4;fontFamily=Helvetica;fontSize=11;fontColor=default;labelBackgroundColor=default;" vertex="1" parent="1">
          <mxGeometry x="340" y="290" width="100" height="40" as="geometry" />
        </mxCell>
        <mxCell id="-iSgqc7Wc7jD1FPE-ffa-3" value="Name" style="ellipse;whiteSpace=wrap;html=1;align=center;fontFamily=Helvetica;fontSize=11;fontColor=default;labelBackgroundColor=default;" vertex="1" parent="1">
          <mxGeometry x="390" y="250" width="100" height="40" as="geometry" />
        </mxCell>
        <mxCell id="-iSgqc7Wc7jD1FPE-ffa-4" value="NoPages" style="ellipse;whiteSpace=wrap;html=1;align=center;fontFamily=Helvetica;fontSize=11;fontColor=default;labelBackgroundColor=default;" vertex="1" parent="1">
          <mxGeometry x="485" y="230" width="100" height="40" as="geometry" />
        </mxCell>
        <mxCell id="-iSgqc7Wc7jD1FPE-ffa-84" style="edgeStyle=none;shape=connector;rounded=0;orthogonalLoop=1;jettySize=auto;html=1;strokeColor=default;align=center;verticalAlign=middle;fontFamily=Helvetica;fontSize=11;fontColor=default;labelBackgroundColor=default;endArrow=none;endFill=0;" edge="1" parent="1" source="-iSgqc7Wc7jD1FPE-ffa-5" target="-iSgqc7Wc7jD1FPE-ffa-80">
          <mxGeometry relative="1" as="geometry" />
        </mxCell>
        <mxCell id="-iSgqc7Wc7jD1FPE-ffa-85" style="edgeStyle=none;shape=connector;rounded=0;orthogonalLoop=1;jettySize=auto;html=1;strokeColor=default;align=center;verticalAlign=middle;fontFamily=Helvetica;fontSize=11;fontColor=default;labelBackgroundColor=default;endArrow=none;endFill=0;" edge="1" parent="1" source="-iSgqc7Wc7jD1FPE-ffa-5" target="-iSgqc7Wc7jD1FPE-ffa-81">
          <mxGeometry relative="1" as="geometry" />
        </mxCell>
        <mxCell id="-iSgqc7Wc7jD1FPE-ffa-86" style="edgeStyle=none;shape=connector;rounded=0;orthogonalLoop=1;jettySize=auto;html=1;strokeColor=default;align=center;verticalAlign=middle;fontFamily=Helvetica;fontSize=11;fontColor=default;labelBackgroundColor=default;endArrow=none;endFill=0;" edge="1" parent="1" source="-iSgqc7Wc7jD1FPE-ffa-5" target="-iSgqc7Wc7jD1FPE-ffa-82">
          <mxGeometry relative="1" as="geometry" />
        </mxCell>
        <mxCell id="-iSgqc7Wc7jD1FPE-ffa-5" value="Author" style="whiteSpace=wrap;html=1;align=center;fontFamily=Helvetica;fontSize=11;fontColor=default;labelBackgroundColor=default;" vertex="1" parent="1">
          <mxGeometry x="720" y="180" width="100" height="40" as="geometry" />
        </mxCell>
        <mxCell id="-iSgqc7Wc7jD1FPE-ffa-11" style="edgeStyle=orthogonalEdgeStyle;shape=connector;rounded=0;orthogonalLoop=1;jettySize=auto;html=1;entryX=0;entryY=0.5;entryDx=0;entryDy=0;strokeColor=default;align=center;verticalAlign=middle;fontFamily=Helvetica;fontSize=11;fontColor=default;labelBackgroundColor=default;endArrow=none;endFill=0;" edge="1" parent="1" source="-iSgqc7Wc7jD1FPE-ffa-9" target="-iSgqc7Wc7jD1FPE-ffa-5">
          <mxGeometry relative="1" as="geometry" />
        </mxCell>
        <mxCell id="-iSgqc7Wc7jD1FPE-ffa-14" value="M" style="edgeLabel;html=1;align=center;verticalAlign=middle;resizable=0;points=[];fontFamily=Helvetica;fontSize=11;fontColor=default;labelBackgroundColor=default;" vertex="1" connectable="0" parent="-iSgqc7Wc7jD1FPE-ffa-11">
          <mxGeometry x="0.7567" y="1" relative="1" as="geometry">
            <mxPoint x="-2" y="-7" as="offset" />
          </mxGeometry>
        </mxCell>
        <mxCell id="-iSgqc7Wc7jD1FPE-ffa-9" value="wrote" style="shape=rhombus;perimeter=rhombusPerimeter;whiteSpace=wrap;html=1;align=center;fontFamily=Helvetica;fontSize=11;fontColor=default;labelBackgroundColor=default;" vertex="1" parent="1">
          <mxGeometry x="620" y="260" width="120" height="60" as="geometry" />
        </mxCell>
        <mxCell id="-iSgqc7Wc7jD1FPE-ffa-22" style="edgeStyle=orthogonalEdgeStyle;shape=link;rounded=0;orthogonalLoop=1;jettySize=auto;html=1;entryX=0.5;entryY=0;entryDx=0;entryDy=0;strokeColor=default;align=center;verticalAlign=middle;fontFamily=Helvetica;fontSize=11;fontColor=default;labelBackgroundColor=default;endArrow=none;endFill=0;" edge="1" parent="1" source="-iSgqc7Wc7jD1FPE-ffa-15" target="-iSgqc7Wc7jD1FPE-ffa-16">
          <mxGeometry relative="1" as="geometry" />
        </mxCell>
        <mxCell id="-iSgqc7Wc7jD1FPE-ffa-24" value="N" style="edgeLabel;html=1;align=center;verticalAlign=middle;resizable=0;points=[];fontFamily=Helvetica;fontSize=11;fontColor=default;labelBackgroundColor=default;" vertex="1" connectable="0" parent="-iSgqc7Wc7jD1FPE-ffa-22">
          <mxGeometry x="0.7377" y="-1" relative="1" as="geometry">
            <mxPoint x="-9" y="-2" as="offset" />
          </mxGeometry>
        </mxCell>
        <mxCell id="-iSgqc7Wc7jD1FPE-ffa-15" value="is copy of" style="shape=rhombus;double=1;perimeter=rhombusPerimeter;whiteSpace=wrap;html=1;align=center;fontFamily=Helvetica;fontSize=11;fontColor=default;labelBackgroundColor=default;" vertex="1" parent="1">
          <mxGeometry x="350" y="430" width="120" height="60" as="geometry" />
        </mxCell>
        <mxCell id="-iSgqc7Wc7jD1FPE-ffa-64" style="edgeStyle=none;shape=connector;rounded=0;orthogonalLoop=1;jettySize=auto;html=1;entryX=0.5;entryY=0;entryDx=0;entryDy=0;strokeColor=default;align=center;verticalAlign=middle;fontFamily=Helvetica;fontSize=11;fontColor=default;labelBackgroundColor=default;endArrow=none;endFill=0;" edge="1" parent="1" source="-iSgqc7Wc7jD1FPE-ffa-16" target="-iSgqc7Wc7jD1FPE-ffa-20">
          <mxGeometry relative="1" as="geometry" />
        </mxCell>
        <mxCell id="-iSgqc7Wc7jD1FPE-ffa-16" value="BookCopy" style="shape=ext;margin=3;double=1;whiteSpace=wrap;html=1;align=center;fontFamily=Helvetica;fontSize=11;fontColor=default;labelBackgroundColor=default;" vertex="1" parent="1">
          <mxGeometry x="360" y="540" width="100" height="40" as="geometry" />
        </mxCell>
        <mxCell id="-iSgqc7Wc7jD1FPE-ffa-20" value="&lt;span style=&quot;border-bottom: 1px dotted&quot;&gt;BookCopyID&lt;/span&gt;" style="ellipse;whiteSpace=wrap;html=1;align=center;fontFamily=Helvetica;fontSize=11;fontColor=default;labelBackgroundColor=default;" vertex="1" parent="1">
          <mxGeometry x="360" y="600" width="100" height="40" as="geometry" />
        </mxCell>
        <mxCell id="-iSgqc7Wc7jD1FPE-ffa-75" style="edgeStyle=none;shape=connector;rounded=0;orthogonalLoop=1;jettySize=auto;html=1;strokeColor=default;align=center;verticalAlign=middle;fontFamily=Helvetica;fontSize=11;fontColor=default;labelBackgroundColor=default;endArrow=none;endFill=0;" edge="1" parent="1" source="-iSgqc7Wc7jD1FPE-ffa-25" target="-iSgqc7Wc7jD1FPE-ffa-33">
          <mxGeometry relative="1" as="geometry" />
        </mxCell>
        <mxCell id="-iSgqc7Wc7jD1FPE-ffa-76" style="edgeStyle=none;shape=connector;rounded=0;orthogonalLoop=1;jettySize=auto;html=1;strokeColor=default;align=center;verticalAlign=middle;fontFamily=Helvetica;fontSize=11;fontColor=default;labelBackgroundColor=default;endArrow=none;endFill=0;" edge="1" parent="1" source="-iSgqc7Wc7jD1FPE-ffa-25" target="-iSgqc7Wc7jD1FPE-ffa-34">
          <mxGeometry relative="1" as="geometry" />
        </mxCell>
        <mxCell id="-iSgqc7Wc7jD1FPE-ffa-25" value="Publisher" style="whiteSpace=wrap;html=1;align=center;fontFamily=Helvetica;fontSize=11;fontColor=default;labelBackgroundColor=default;" vertex="1" parent="1">
          <mxGeometry x="750" y="450" width="100" height="40" as="geometry" />
        </mxCell>
        <mxCell id="-iSgqc7Wc7jD1FPE-ffa-28" style="edgeStyle=orthogonalEdgeStyle;shape=connector;rounded=0;orthogonalLoop=1;jettySize=auto;html=1;entryX=0;entryY=0.5;entryDx=0;entryDy=0;strokeColor=default;align=center;verticalAlign=middle;fontFamily=Helvetica;fontSize=11;fontColor=default;labelBackgroundColor=default;endArrow=none;endFill=0;" edge="1" parent="1" source="-iSgqc7Wc7jD1FPE-ffa-26" target="-iSgqc7Wc7jD1FPE-ffa-25">
          <mxGeometry relative="1" as="geometry" />
        </mxCell>
        <mxCell id="-iSgqc7Wc7jD1FPE-ffa-30" value="1" style="edgeLabel;html=1;align=center;verticalAlign=middle;resizable=0;points=[];fontFamily=Helvetica;fontSize=11;fontColor=default;labelBackgroundColor=default;" vertex="1" connectable="0" parent="-iSgqc7Wc7jD1FPE-ffa-28">
          <mxGeometry x="0.5723" relative="1" as="geometry">
            <mxPoint y="-9" as="offset" />
          </mxGeometry>
        </mxCell>
        <mxCell id="-iSgqc7Wc7jD1FPE-ffa-26" value="published" style="shape=rhombus;perimeter=rhombusPerimeter;whiteSpace=wrap;html=1;align=center;fontFamily=Helvetica;fontSize=11;fontColor=default;labelBackgroundColor=default;" vertex="1" parent="1">
          <mxGeometry x="570" y="440" width="120" height="60" as="geometry" />
        </mxCell>
        <mxCell id="-iSgqc7Wc7jD1FPE-ffa-33" value="Name" style="ellipse;whiteSpace=wrap;html=1;align=center;fontStyle=4;fontFamily=Helvetica;fontSize=11;fontColor=default;labelBackgroundColor=default;" vertex="1" parent="1">
          <mxGeometry x="880" y="410" width="100" height="40" as="geometry" />
        </mxCell>
        <mxCell id="-iSgqc7Wc7jD1FPE-ffa-34" value="Address" style="ellipse;whiteSpace=wrap;html=1;align=center;fontStyle=4;fontFamily=Helvetica;fontSize=11;fontColor=default;labelBackgroundColor=default;" vertex="1" parent="1">
          <mxGeometry x="880" y="490" width="100" height="40" as="geometry" />
        </mxCell>
        <mxCell id="-iSgqc7Wc7jD1FPE-ffa-47" style="edgeStyle=orthogonalEdgeStyle;shape=connector;rounded=0;orthogonalLoop=1;jettySize=auto;html=1;entryX=0;entryY=0.5;entryDx=0;entryDy=0;strokeColor=default;align=center;verticalAlign=middle;fontFamily=Helvetica;fontSize=11;fontColor=default;labelBackgroundColor=default;endArrow=none;endFill=0;" edge="1" parent="1" source="-iSgqc7Wc7jD1FPE-ffa-35" target="-iSgqc7Wc7jD1FPE-ffa-1">
          <mxGeometry relative="1" as="geometry" />
        </mxCell>
        <mxCell id="-iSgqc7Wc7jD1FPE-ffa-50" value="N" style="edgeLabel;html=1;align=center;verticalAlign=middle;resizable=0;points=[];fontFamily=Helvetica;fontSize=11;fontColor=default;labelBackgroundColor=default;" vertex="1" connectable="0" parent="-iSgqc7Wc7jD1FPE-ffa-47">
          <mxGeometry x="0.7758" y="1" relative="1" as="geometry">
            <mxPoint y="-7" as="offset" />
          </mxGeometry>
        </mxCell>
        <mxCell id="-iSgqc7Wc7jD1FPE-ffa-35" value="relates to" style="shape=rhombus;perimeter=rhombusPerimeter;whiteSpace=wrap;html=1;align=center;fontFamily=Helvetica;fontSize=11;fontColor=default;labelBackgroundColor=default;" vertex="1" parent="1">
          <mxGeometry x="230" y="330" width="120" height="60" as="geometry" />
        </mxCell>
        <mxCell id="-iSgqc7Wc7jD1FPE-ffa-38" style="shape=connector;rounded=0;orthogonalLoop=1;jettySize=auto;html=1;entryX=0;entryY=1;entryDx=0;entryDy=0;strokeColor=default;align=center;verticalAlign=middle;fontFamily=Helvetica;fontSize=11;fontColor=default;labelBackgroundColor=default;endArrow=none;endFill=0;" edge="1" parent="1" source="-iSgqc7Wc7jD1FPE-ffa-36" target="-iSgqc7Wc7jD1FPE-ffa-37">
          <mxGeometry relative="1" as="geometry" />
        </mxCell>
        <mxCell id="-iSgqc7Wc7jD1FPE-ffa-41" value="subcategory" style="edgeLabel;html=1;align=center;verticalAlign=middle;resizable=0;points=[];fontFamily=Helvetica;fontSize=11;fontColor=default;labelBackgroundColor=default;" vertex="1" connectable="0" parent="-iSgqc7Wc7jD1FPE-ffa-38">
          <mxGeometry x="0.0795" y="1" relative="1" as="geometry">
            <mxPoint x="-33" as="offset" />
          </mxGeometry>
        </mxCell>
        <mxCell id="-iSgqc7Wc7jD1FPE-ffa-45" value="N" style="edgeLabel;html=1;align=center;verticalAlign=middle;resizable=0;points=[];fontFamily=Helvetica;fontSize=11;fontColor=default;labelBackgroundColor=default;" vertex="1" connectable="0" parent="-iSgqc7Wc7jD1FPE-ffa-38">
          <mxGeometry x="-0.6771" relative="1" as="geometry">
            <mxPoint x="-10" y="2" as="offset" />
          </mxGeometry>
        </mxCell>
        <mxCell id="-iSgqc7Wc7jD1FPE-ffa-46" style="edgeStyle=orthogonalEdgeStyle;shape=connector;rounded=0;orthogonalLoop=1;jettySize=auto;html=1;entryX=0;entryY=0.5;entryDx=0;entryDy=0;strokeColor=default;align=center;verticalAlign=middle;fontFamily=Helvetica;fontSize=11;fontColor=default;labelBackgroundColor=default;endArrow=none;endFill=0;" edge="1" parent="1" source="-iSgqc7Wc7jD1FPE-ffa-36" target="-iSgqc7Wc7jD1FPE-ffa-35">
          <mxGeometry relative="1" as="geometry" />
        </mxCell>
        <mxCell id="-iSgqc7Wc7jD1FPE-ffa-49" value="M" style="edgeLabel;html=1;align=center;verticalAlign=middle;resizable=0;points=[];fontFamily=Helvetica;fontSize=11;fontColor=default;labelBackgroundColor=default;" vertex="1" connectable="0" parent="-iSgqc7Wc7jD1FPE-ffa-46">
          <mxGeometry x="-0.5766" relative="1" as="geometry">
            <mxPoint x="-5" y="-8" as="offset" />
          </mxGeometry>
        </mxCell>
        <mxCell id="-iSgqc7Wc7jD1FPE-ffa-88" style="edgeStyle=none;shape=connector;rounded=0;orthogonalLoop=1;jettySize=auto;html=1;strokeColor=default;align=center;verticalAlign=middle;fontFamily=Helvetica;fontSize=11;fontColor=default;labelBackgroundColor=default;endArrow=none;endFill=0;" edge="1" parent="1" source="-iSgqc7Wc7jD1FPE-ffa-36" target="-iSgqc7Wc7jD1FPE-ffa-87">
          <mxGeometry relative="1" as="geometry" />
        </mxCell>
        <mxCell id="-iSgqc7Wc7jD1FPE-ffa-36" value="Category" style="whiteSpace=wrap;html=1;align=center;fontFamily=Helvetica;fontSize=11;fontColor=default;labelBackgroundColor=default;" vertex="1" parent="1">
          <mxGeometry x="55" y="340" width="100" height="40" as="geometry" />
        </mxCell>
        <mxCell id="-iSgqc7Wc7jD1FPE-ffa-37" value="is subcategory of" style="shape=rhombus;perimeter=rhombusPerimeter;whiteSpace=wrap;html=1;align=center;fontFamily=Helvetica;fontSize=11;fontColor=default;labelBackgroundColor=default;" vertex="1" parent="1">
          <mxGeometry x="45" y="210" width="120" height="60" as="geometry" />
        </mxCell>
        <mxCell id="-iSgqc7Wc7jD1FPE-ffa-39" style="shape=connector;rounded=0;orthogonalLoop=1;jettySize=auto;html=1;exitX=1;exitY=1;exitDx=0;exitDy=0;strokeColor=default;align=center;verticalAlign=middle;fontFamily=Helvetica;fontSize=11;fontColor=default;labelBackgroundColor=default;endArrow=none;endFill=0;" edge="1" parent="1" source="-iSgqc7Wc7jD1FPE-ffa-37" target="-iSgqc7Wc7jD1FPE-ffa-36">
          <mxGeometry relative="1" as="geometry" />
        </mxCell>
        <mxCell id="-iSgqc7Wc7jD1FPE-ffa-43" value="parent&lt;div&gt;category&lt;/div&gt;" style="edgeLabel;html=1;align=center;verticalAlign=middle;resizable=0;points=[];fontFamily=Helvetica;fontSize=11;fontColor=default;labelBackgroundColor=default;" vertex="1" connectable="0" parent="-iSgqc7Wc7jD1FPE-ffa-39">
          <mxGeometry x="0.0245" relative="1" as="geometry">
            <mxPoint x="26" y="-2" as="offset" />
          </mxGeometry>
        </mxCell>
        <mxCell id="-iSgqc7Wc7jD1FPE-ffa-44" value="1" style="edgeLabel;html=1;align=center;verticalAlign=middle;resizable=0;points=[];fontFamily=Helvetica;fontSize=11;fontColor=default;labelBackgroundColor=default;" vertex="1" connectable="0" parent="-iSgqc7Wc7jD1FPE-ffa-39">
          <mxGeometry x="0.6615" y="1" relative="1" as="geometry">
            <mxPoint x="6" y="3" as="offset" />
          </mxGeometry>
        </mxCell>
        <mxCell id="-iSgqc7Wc7jD1FPE-ffa-53" style="edgeStyle=orthogonalEdgeStyle;shape=connector;rounded=0;orthogonalLoop=1;jettySize=auto;html=1;entryX=1;entryY=0.5;entryDx=0;entryDy=0;strokeColor=default;align=center;verticalAlign=middle;fontFamily=Helvetica;fontSize=11;fontColor=default;labelBackgroundColor=default;endArrow=none;endFill=0;" edge="1" parent="1" source="-iSgqc7Wc7jD1FPE-ffa-51" target="-iSgqc7Wc7jD1FPE-ffa-52">
          <mxGeometry relative="1" as="geometry" />
        </mxCell>
        <mxCell id="-iSgqc7Wc7jD1FPE-ffa-56" value="1" style="edgeLabel;html=1;align=center;verticalAlign=middle;resizable=0;points=[];fontFamily=Helvetica;fontSize=11;fontColor=default;labelBackgroundColor=default;" vertex="1" connectable="0" parent="-iSgqc7Wc7jD1FPE-ffa-53">
          <mxGeometry x="-0.4234" y="-2" relative="1" as="geometry">
            <mxPoint x="20" y="-8" as="offset" />
          </mxGeometry>
        </mxCell>
        <mxCell id="-iSgqc7Wc7jD1FPE-ffa-71" style="edgeStyle=none;shape=connector;rounded=0;orthogonalLoop=1;jettySize=auto;html=1;strokeColor=default;align=center;verticalAlign=middle;fontFamily=Helvetica;fontSize=11;fontColor=default;labelBackgroundColor=default;endArrow=none;endFill=0;" edge="1" parent="1" source="-iSgqc7Wc7jD1FPE-ffa-51" target="-iSgqc7Wc7jD1FPE-ffa-70">
          <mxGeometry relative="1" as="geometry" />
        </mxCell>
        <mxCell id="-iSgqc7Wc7jD1FPE-ffa-51" value="Reader" style="whiteSpace=wrap;html=1;align=center;fontFamily=Helvetica;fontSize=11;fontColor=default;labelBackgroundColor=default;" vertex="1" parent="1">
          <mxGeometry x="750" y="540" width="100" height="40" as="geometry" />
        </mxCell>
        <mxCell id="-iSgqc7Wc7jD1FPE-ffa-54" style="edgeStyle=orthogonalEdgeStyle;shape=connector;rounded=0;orthogonalLoop=1;jettySize=auto;html=1;entryX=1;entryY=0.5;entryDx=0;entryDy=0;strokeColor=default;align=center;verticalAlign=middle;fontFamily=Helvetica;fontSize=11;fontColor=default;labelBackgroundColor=default;endArrow=none;endFill=0;" edge="1" parent="1" source="-iSgqc7Wc7jD1FPE-ffa-52" target="-iSgqc7Wc7jD1FPE-ffa-16">
          <mxGeometry relative="1" as="geometry" />
        </mxCell>
        <mxCell id="-iSgqc7Wc7jD1FPE-ffa-55" value="N" style="edgeLabel;html=1;align=center;verticalAlign=middle;resizable=0;points=[];fontFamily=Helvetica;fontSize=11;fontColor=default;labelBackgroundColor=default;" vertex="1" connectable="0" parent="-iSgqc7Wc7jD1FPE-ffa-54">
          <mxGeometry x="0.6308" relative="1" as="geometry">
            <mxPoint x="-1" y="-9" as="offset" />
          </mxGeometry>
        </mxCell>
        <mxCell id="-iSgqc7Wc7jD1FPE-ffa-67" value="" style="edgeStyle=none;shape=connector;rounded=0;orthogonalLoop=1;jettySize=auto;html=1;strokeColor=default;align=center;verticalAlign=middle;fontFamily=Helvetica;fontSize=11;fontColor=default;labelBackgroundColor=default;endArrow=none;endFill=0;" edge="1" parent="1" source="-iSgqc7Wc7jD1FPE-ffa-52" target="-iSgqc7Wc7jD1FPE-ffa-58">
          <mxGeometry relative="1" as="geometry" />
        </mxCell>
        <mxCell id="-iSgqc7Wc7jD1FPE-ffa-69" style="edgeStyle=none;shape=connector;rounded=0;orthogonalLoop=1;jettySize=auto;html=1;strokeColor=default;align=center;verticalAlign=middle;fontFamily=Helvetica;fontSize=11;fontColor=default;labelBackgroundColor=default;endArrow=none;endFill=0;" edge="1" parent="1" source="-iSgqc7Wc7jD1FPE-ffa-52" target="-iSgqc7Wc7jD1FPE-ffa-57">
          <mxGeometry relative="1" as="geometry" />
        </mxCell>
        <mxCell id="-iSgqc7Wc7jD1FPE-ffa-52" value="borrows" style="shape=rhombus;perimeter=rhombusPerimeter;whiteSpace=wrap;html=1;align=center;fontFamily=Helvetica;fontSize=11;fontColor=default;labelBackgroundColor=default;" vertex="1" parent="1">
          <mxGeometry x="525" y="530" width="120" height="60" as="geometry" />
        </mxCell>
        <mxCell id="-iSgqc7Wc7jD1FPE-ffa-57" value="PlanReturnDate" style="ellipse;whiteSpace=wrap;html=1;align=center;fontFamily=Helvetica;fontSize=11;fontColor=default;labelBackgroundColor=default;" vertex="1" parent="1">
          <mxGeometry x="480" y="600" width="100" height="40" as="geometry" />
        </mxCell>
        <mxCell id="-iSgqc7Wc7jD1FPE-ffa-58" value="FactReturnDate" style="ellipse;whiteSpace=wrap;html=1;align=center;fontFamily=Helvetica;fontSize=11;fontColor=default;labelBackgroundColor=default;" vertex="1" parent="1">
          <mxGeometry x="590" y="600" width="100" height="40" as="geometry" />
        </mxCell>
        <mxCell id="-iSgqc7Wc7jD1FPE-ffa-70" value="LibCardID" style="ellipse;whiteSpace=wrap;html=1;align=center;fontStyle=4;fontFamily=Helvetica;fontSize=11;fontColor=default;labelBackgroundColor=default;" vertex="1" parent="1">
          <mxGeometry x="750" y="600" width="100" height="40" as="geometry" />
        </mxCell>
        <mxCell id="-iSgqc7Wc7jD1FPE-ffa-80" value="FirstName" style="ellipse;whiteSpace=wrap;html=1;align=center;fontStyle=4;fontFamily=Helvetica;fontSize=11;fontColor=default;labelBackgroundColor=default;" vertex="1" parent="1">
          <mxGeometry x="600" y="100" width="100" height="40" as="geometry" />
        </mxCell>
        <mxCell id="-iSgqc7Wc7jD1FPE-ffa-81" value="MiddleName" style="ellipse;whiteSpace=wrap;html=1;align=center;fontStyle=4;fontFamily=Helvetica;fontSize=11;fontColor=default;labelBackgroundColor=default;" vertex="1" parent="1">
          <mxGeometry x="720" y="100" width="100" height="40" as="geometry" />
        </mxCell>
        <mxCell id="-iSgqc7Wc7jD1FPE-ffa-82" value="LastName" style="ellipse;whiteSpace=wrap;html=1;align=center;fontStyle=4;fontFamily=Helvetica;fontSize=11;fontColor=default;labelBackgroundColor=default;" vertex="1" parent="1">
          <mxGeometry x="840" y="100" width="100" height="40" as="geometry" />
        </mxCell>
        <mxCell id="-iSgqc7Wc7jD1FPE-ffa-87" value="Name" style="ellipse;whiteSpace=wrap;html=1;align=center;fontStyle=4;fontFamily=Helvetica;fontSize=11;fontColor=default;labelBackgroundColor=default;" vertex="1" parent="1">
          <mxGeometry x="55" y="414" width="100" height="40" as="geometry" />
        </mxCell>
      </root>
    </mxGraphModel>
  </diagram>
</mxfile>
